<?xml version="1.0" encoding="utf-8"?>
<!-- Generator: Adobe Illustrator 27.0.0, SVG Export Plug-In . SVG Version: 6.00 Build 0)  -->
<svg version="1.1" id="圖層_1" xmlns="http://www.w3.org/2000/svg" xmlns:xlink="http://www.w3.org/1999/xlink" x="0px" y="0px"
	 viewBox="0 0 100 100" style="enable-background:new 0 0 100 100;" xml:space="preserve">
<style type="text/css">
	.st0{fill:#21333F;}
	.st1{fill:#8ECEF2;}
</style>
<g id="背景">
	<rect class="st0" width="100" height="100"/>
</g>
<g id="圖層_1_00000114046212715497932750000007992888131859911849_">
	<g id="圖層_1_00000119806564623874468630000011516468683515704253_">
		<path class="st1" d="M71.7,34.1L65.6,28c-0.8-0.8-1.7-1.1-2.7-1.1s-2,0.4-2.7,1.1l-4.1,4.1c-0.8-0.3-1.8-0.1-2.4,0.5l-1.8,1.8
			c-0.7,0.7-0.8,1.8-0.4,2.6L31.7,56.8c-0.1,0.1-0.1,0.1-0.1,0.2c0,0,0,0,0,0.1c-0.1,0.1-0.1,0.1-0.1,0.2l0,0L27.9,68l0,0l-0.4,1.1
			l-0.4,1.1c0,0.1,0,0.1-0.1,0.1c-0.1,0.6,0,1.1,0.2,1.4c0.1,0.1,0.1,0.3,0.2,0.3c0.4,0.4,0.9,0.7,1.6,0.7l0,0c0.1,0,0.1,0,0.2,0
			s0.2,0,0.3,0l0,0l0,0c0.1,0,0.1,0,0.1-0.1l1.6-0.5l11.3-3.7l0,0c0.2-0.1,0.3-0.1,0.4-0.3l19.9-19.9c0.3,0.1,0.5,0.1,0.8,0.1
			c0.6,0,1.2-0.3,1.6-0.7l1.8-1.8c0.7-0.7,0.8-1.6,0.5-2.5l4.1-4.1C73.2,38.1,73.2,35.6,71.7,34.1z M42.3,65.8l-3.2-3.2l18.8-18.9
			l3.2,3.2L42.3,65.8z M56.3,42L37.4,60.9l-3.2-3.3L53,38.8L56.3,42z M32,69.5L30.4,68l2.7-8.2l3.5,3.5l0,0l0,0l3.5,3.5L32,69.5z
			 M64.1,45.9C64,45.8,64,45.8,64,45.8L54.2,36c-0.1-0.1-0.2-0.2-0.3-0.3l1.4-1.4l0.1,0.1l0,0l9.9,9.9c0.1,0.1,0.1,0.1,0.2,0.1
			L64.1,45.9z M70.1,38l-4,4l-8.3-8.3l4-4c0.6-0.6,1.6-0.6,2.1,0l6.1,6.1C70.7,36.4,70.7,37.3,70.1,38z"/>
	</g>
</g>
</svg>
