<?xml version="1.0" encoding="utf-8"?>
<!-- Generator: Adobe Illustrator 27.0.0, SVG Export Plug-In . SVG Version: 6.00 Build 0)  -->
<svg version="1.1" id="圖層_1" xmlns="http://www.w3.org/2000/svg" xmlns:xlink="http://www.w3.org/1999/xlink" x="0px" y="0px"
	 viewBox="0 0 100 100" style="enable-background:new 0 0 100 100;" xml:space="preserve">
<g id="背景">
</g>
<g id="圖層_1_00000166647952509398400010000000954285253107251880_">
	<g id="圖層_1_00000119806564623874468630000011516468683515704253_">
		<path d="M97.3,15.7L84.1,2.4C82.3,0.7,80.4,0,78.2,0c-2.2,0-4.3,0.9-5.9,2.4l-8.9,8.9c-1.7-0.7-3.9-0.2-5.2,1.1l-3.9,3.9
			c-1.5,1.5-1.7,3.9-0.9,5.7L10.3,65c-0.2,0.2-0.2,0.2-0.2,0.4c0,0,0,0,0,0.2c-0.2,0.2-0.2,0.2-0.2,0.4l0,0L2.1,89.4l0,0l-0.9,2.4
			l-0.9,2.4c0,0.2,0,0.2-0.2,0.2c-0.2,1.3,0,2.4,0.4,3c0.2,0.2,0.2,0.7,0.4,0.7c0.9,0.9,2,1.5,3.5,1.5l0,0c0.2,0,0.2,0,0.4,0
			c0.2,0,0.4,0,0.7,0l0,0l0,0c0.2,0,0.2,0,0.2-0.2l3.5-1.1l24.6-8l0,0c0.4-0.2,0.7-0.2,0.9-0.7L78,46.3c0.7,0.2,1.1,0.2,1.7,0.2
			c1.3,0,2.6-0.7,3.5-1.5l3.9-3.9c1.5-1.5,1.7-3.5,1.1-5.4l8.9-8.9C100.6,24.4,100.6,18.9,97.3,15.7z M33.4,84.6l-7-7l40.9-41.1l7,7
			L33.4,84.6z M63.8,32.8L22.7,73.9l-7-7.2l40.9-40.9L63.8,32.8z M11,92.6l-3.5-3.3l5.9-17.8l7.6,7.6l0,0l0,0l7.6,7.6L11,92.6z
			 M80.8,41.3c-0.2-0.2-0.2-0.2-0.2-0.2L59.3,19.8c-0.2-0.2-0.4-0.4-0.7-0.7l3-3l0.2,0.2l0,0l21.5,21.5c0.2,0.2,0.2,0.2,0.4,0.2
			L80.8,41.3z M93.8,24.1l-8.7,8.7l-18-18l8.7-8.7c1.3-1.3,3.5-1.3,4.6,0l13.3,13.3C95.1,20.7,95.1,22.6,93.8,24.1z"/>
	</g>
</g>
</svg>
