<?xml version="1.0" encoding="utf-8"?>
<!-- Generator: Adobe Illustrator 27.0.0, SVG Export Plug-In . SVG Version: 6.00 Build 0)  -->
<svg version="1.1" id="圖層_1" xmlns="http://www.w3.org/2000/svg" xmlns:xlink="http://www.w3.org/1999/xlink" x="0px" y="0px"
	 viewBox="0 0 100 100" style="enable-background:new 0 0 100 100;" xml:space="preserve">
<style type="text/css">
	.st0{fill:#21333F;}
	.st1{fill:#8ECEF2;}
</style>
<g id="背景">
	<circle class="st0" cx="50" cy="50" r="50"/>
</g>
<g id="圖層_1_00000161625499128800465730000010145442063663182742_">
	<g id="圖層_1_00000119806564623874468630000011516468683515704253_">
		<path class="st1" d="M76,31l-7.3-7.3c-1-1-2-1.3-3.2-1.3s-2.4,0.5-3.2,1.3l-4.9,4.9c-1-0.4-2.2-0.1-2.9,0.6l-2.2,2.2
			c-0.8,0.8-1,2.2-0.5,3.1L28.1,58.2C28,58.3,28,58.3,28,58.4c0,0,0,0,0,0.1c-0.1,0.1-0.1,0.1-0.1,0.2l0,0l-4.3,12.8l0,0l-0.5,1.3
			l-0.5,1.3c0,0.1,0,0.1-0.1,0.1c-0.1,0.7,0,1.3,0.2,1.7c0.1,0.1,0.1,0.4,0.2,0.4c0.5,0.5,1.1,0.8,1.9,0.8l0,0c0.1,0,0.1,0,0.2,0
			s0.2,0,0.4,0l0,0l0,0c0.1,0,0.1,0,0.1-0.1l1.9-0.6L41,72.1l0,0c0.2-0.1,0.4-0.1,0.5-0.4l23.8-23.8c0.4,0.1,0.6,0.1,1,0.1
			c0.7,0,1.4-0.4,1.9-0.8l2.2-2.2c0.8-0.8,1-1.9,0.6-3l4.9-4.9C77.8,35.8,77.8,32.8,76,31z M40.8,68.9L37,65.1l22.5-22.6l3.8,3.8
			L40.8,68.9z M57.6,40.5L34.9,63.1l-3.8-3.9l22.5-22.5L57.6,40.5z M28.5,73.4l-1.9-1.8l3.2-9.8L34,66l0,0l0,0l4.2,4.2L28.5,73.4z
			 M66.9,45.1C66.8,45,66.8,45,66.9,45.1L55,33.3c-0.1-0.1-0.2-0.2-0.4-0.4l1.7-1.7l0.1,0.1l0,0l11.8,11.8c0.1,0.1,0.1,0.1,0.2,0.1
			L66.9,45.1z M74.1,35.7l-4.8,4.8l-9.9-9.9l4.8-4.8c0.7-0.7,1.9-0.7,2.5,0L74,33C74.8,33.8,74.8,34.8,74.1,35.7z"/>
	</g>
</g>
</svg>
